<?xml version="1.0" encoding="utf-8"?>
<!-- Generator: Adobe Illustrator 24.1.1, SVG Export Plug-In . SVG Version: 6.00 Build 0)  -->
<svg version="1.1" xmlns="http://www.w3.org/2000/svg" xmlns:xlink="http://www.w3.org/1999/xlink" x="0px" y="0px"
	 viewBox="0 0 1080 180" style="enable-background:new 0 0 1080 180;" xml:space="preserve">
<style type="text/css">
	.st0{fill:#1A1A8E;}
	.st1{fill:#8C8250;}
	.st2{fill:#585252;}
	.st3{fill:#645C38;}
	.st4{fill:#6C633C;}
	.st5{fill:#827849;}
	.st6{fill:#746C6C;}
	.st7{fill:#837949;}
	.st8{fill:none;}
	.st9{fill:#6B623C;}
	.st10{fill:#A59A99;}
	.st11{fill:#B6A867;}
	.st12{fill:#9B8F57;}
	.st13{fill:#3C3737;}
	.st14{fill:#151111;}
	.st15{fill:#4E4948;}
	.st16{fill:#423D3D;}
	.st17{fill:#6C6464;}
	.st18{fill:#7F7676;}
	.st19{fill:#A79A5E;}
	.st20{fill:#AD9F61;}
	.st21{fill:#454040;}
	.st22{fill:#8D8350;}
	.st23{fill:#7D7447;}
	.st24{fill:#877C4C;}
	.st25{fill:#6E653E;}
	.st26{fill:#D6C88A;}
	.st27{fill:#80847A;}
	.st28{fill:#787B72;}
	.st29{fill:#70736B;}
	.st30{fill:#6C6E66;}
	.st31{fill:#4C4E48;}
	.st32{fill:#72756C;}
	.st33{fill:#A0A498;}
	.st34{fill:#88835B;}
	.st35{fill:#8A856E;}
	.st36{fill:#3F3B3B;}
	.st37{fill:#6E6767;}
	.st38{fill:#655150;}
	.st39{fill:#3D3D4D;}
	.st40{opacity:0.48;fill:#CBB79F;}
	.st41{opacity:0.34;fill:#C1926D;}
	.st42{fill:#C96A17;}
	.st43{opacity:0.64;fill:#512F1B;}
	.st44{opacity:0.83;fill:#824C2F;}
	.st45{fill:#3E2112;}
	.st46{fill:#1B1212;}
	.st47{fill:#73180D;}
	.st48{fill:#6D150D;}
	.st49{fill:#262630;}
	.st50{fill:#353543;}
	.st51{fill:#230000;}
	.st52{fill:#25252F;}
	.st53{fill:#605A5B;}
	.st54{fill:#A8A1A1;}
	.st55{fill:#1A0909;}
	.st56{fill:#C8C5C5;}
	.st57{fill:#572A28;}
	.st58{fill:#5D585A;}
	.st59{fill:#3F3030;}
	.st60{fill:#561109;}
	.st61{fill:#525267;}
	.st62{fill:#261010;}
	.st63{fill:#484343;}
	.st64{fill:#5A5454;}
	.st65{fill:#494950;}
	.st66{fill:#5B5555;}
	.st67{fill:#CA2A18;}
	.st68{fill:#865C5A;}
	.st69{fill:#C18582;}
	.st70{fill:#66666E;}
	.st71{fill:#4D4847;}
	.st72{fill:#3C3C41;}
	.st73{fill:#544D4D;}
	.st74{fill:#78180D;}
	.st75{fill:#75180D;}
	.st76{fill:#4B4545;}
	.st77{fill:#55555B;}
	.st78{fill:#2B2929;}
	.st79{fill:#474242;}
	.st80{fill:#C78C89;}
	.st81{fill:#C12818;}
	.st82{fill:#921D0F;}
	.st83{fill:#7D190D;}
	.st84{fill:#991F10;}
	.st85{fill:#801A0E;}
	.st86{opacity:0.16;fill:#E32E17;}
	.st87{opacity:0.38;fill:#791709;}
	.st88{opacity:0.57;fill:#D72E19;}
	.st89{fill:#8B1D11;}
	.st90{fill:#9D2111;}
	.st91{fill:#691509;}
	.st92{fill:#D02C18;}
	.st93{fill:#47474D;}
	.st94{fill:#8F6361;}
	.st95{fill:#FFFF00;}
	.st96{font-family:'RuneScape-UF';}
	.st97{font-size:60px;}
</style>
<g id="Layer_7">
	<rect y="1" class="st0" width="1080" height="179"/>
</g>
<g id="Layer_1">
	<polygon class="st1" points="241.26,148.94 238.06,139.64 238.06,126.07 241.26,126.07 241.26,141.77 244.16,148.94 	"/>
	<polygon class="st2" points="256.96,142.23 244.16,148.94 241.26,141.77 241.26,126.07 244.16,114.48 244.16,126.29 244.16,129.27 
		247.66,126.07 253.61,132.32 244.77,139.18 254.52,139.18 	"/>
	<polygon class="st3" points="247.66,126.07 244.16,126.29 244.16,129.27 	"/>
	<polygon class="st4" points="238.06,126.07 234.78,116.54 238.06,109.98 241.26,107.24 244.54,113.26 241.26,126.07 	"/>
	<polygon class="st5" points="237.68,126.07 234.78,126.07 231.43,116.65 234.55,109.6 238.06,77.27 247.97,57.68 254.37,37.86 
		260.55,29.02 257.96,41.06 241.41,80.32 238.06,109.98 234.78,116.54 	"/>
	<polygon class="st6" points="244.16,100.45 241.26,107.24 238.06,109.98 241.41,80.32 251.4,56.62 257.96,41.06 260.55,29.02 
		279.68,13.24 273.28,25.97 266.49,34.2 260.55,38.7 261.08,41.29 273.05,29.48 267.1,44.8 263.29,50.13 260.55,64.77 251.48,73.84 
		246.6,77.05 244.54,80.4 253.3,73.54 260.55,67.9 251.32,85.36 244.92,96.18 243.62,99.54 	"/>
	<polygon class="st7" points="244.54,80.4 246.6,77.05 260.55,67.9 	"/>
	<polygon class="st8" points="257.88,57.3 258.26,53.64 263.44,48.76 	"/>
	<polygon class="st9" points="260.55,38.7 261.08,41.29 273.05,29.48 	"/>
	<polygon class="st10" points="234.55,109.6 236.64,90.36 221.44,70.76 205.2,60.81 185.3,67.9 168.72,81.39 156.49,97.06 
		163.35,103.58 175.81,109.6 178.6,97.4 192.16,74.64 192.51,96.26 189.19,112.61 	"/>
	<polygon class="st11" points="234.55,109.6 231.43,116.65 232.69,120.21 215.49,123.24 189.31,123.24 185.53,136.05 182.44,136.05 
		178.67,133.19 175.7,122.83 159.23,116.65 160.15,113.64 157.74,110.78 156.49,107.69 156.49,97.06 163.35,103.58 175.81,109.6 
		178.6,97.4 192.16,74.64 192.51,96.26 189.19,112.61 	"/>
	<polygon class="st12" points="156.49,107.69 157.74,110.78 160.15,113.64 166.64,119.43 169.29,123.13 177.09,127.67 
		178.67,133.19 182.44,136.05 185.53,136.05 189.53,132.85 212.29,129.76 232.69,120.21 211.26,133.31 175.93,139.71 162.66,126.56 
		156.49,111.01 	"/>
	<polygon class="st13" points="189.31,123.24 185.53,136.05 189.53,132.85 192.05,123.24 	"/>
	<polygon class="st14" points="232.69,120.21 215.49,123.24 192.05,123.24 188.79,133.44 212.29,129.76 	"/>
	<polygon class="st14" points="177.09,127.67 175.7,122.83 166.64,119.43 169.29,123.13 	"/>
	<polygon class="st10" points="221.55,155.38 224.64,139.25 233.3,123.11 233.56,122.63 232.69,120.21 211.26,133.31 176.61,139.71 
		162.66,126.56 157.12,112.61 157.12,115.7 162.78,145.43 166.64,153.09 175.58,164.64 185.53,175.28 199.25,172.07 	"/>
	<polygon class="st15" points="198.91,146.69 202.34,159.61 199.25,172.07 195.52,162.01 	"/>
	<polygon class="st16" points="211.95,155.38 211.95,162.12 218.47,148.94 218.01,140.28 	"/>
	<polygon class="st17" points="179.47,150.35 185.53,175.28 179.47,162.12 	"/>
	<polygon class="st18" points="163.12,140.28 174.97,163.85 166.12,152.07 	"/>
	<polygon class="st19" points="160.88,135.47 159.92,135.47 156.49,126.07 157.12,113.41 	"/>
	<polygon class="st20" points="156.49,112.61 153.4,107.24 156.49,97.06 159.57,67.1 169.04,46.63 156.49,68.24 153.4,96.83 
		150.08,103.8 153.4,113.41 	"/>
	<polygon class="st21" points="160.06,92.48 163.58,80.02 177.09,67.9 182.44,55.55 166.64,64.58 167.12,62.18 171.86,60.01 
		182.44,51.77 186.22,39.42 176.15,45.37 173.14,44.91 179.47,41.83 189.31,31.99 195.52,19.98 179.47,29.02 179.59,26.85 
		182.9,25.59 195.52,13.24 201.88,1 183.24,15.41 176.27,25.36 169.98,44.46 159.56,67.9 156.49,97.06 	"/>
	<polygon class="st22" points="173.07,25.47 169.98,44.46 176.27,25.36 183.24,15.41 201.88,1 179.19,16.21 	"/>
	<polygon class="st23" points="179.59,26.85 195.52,19.98 179.47,29.02 	"/>
	<polygon class="st24" points="173.14,44.91 176.15,45.37 186.22,39.42 	"/>
	<polygon class="st25" points="167.12,62.18 166.64,64.58 182.44,55.55 	"/>
	<polygon class="st14" points="238.06,142.23 237.68,126.07 234.78,126.07 233.94,123.7 224.75,159.38 231.41,152.07 	"/>
	<polygon class="st26" points="211.95,172.07 199.25,172.07 185.53,175.28 174.97,163.85 168.04,155.26 169.64,165.1 185.53,178.41 
			"/>
	<polygon class="st26" points="224.75,159.38 211.95,172.07 199.25,172.07 221.55,155.38 224.75,139.04 233.56,122.63 233.94,123.7 
			"/>
</g>
<g id="Layer_2">
	<path class="st27" d="M475.68,68.81l-15.6-34.8l-32.8-10v-5.6c0,0-29.6-3.2-54.4-3.2s-52.4,3.2-52.4,3.2v2.8l-33.6,15.6l-16.8,32
		l2.4,21.2l49.2,2l3.6,32l-3.6,27.2l11.2,20.4l31.2,4.8l52.4-6.4l8-18l-4-22.4l3.86-32.2l0.94-26.2l2,18.4h48.4V68.81z"/>
	<polygon class="st28" points="320.88,67.61 334.48,76.41 356.48,76.41 366.48,67.61 364.08,31.61 331.68,28.81 324.48,32.81 	"/>
	<polygon class="st29" points="379.28,31.21 378.69,68.03 388.15,74.39 410.25,77.21 425.14,64.5 419.71,31.21 413.21,28.01 	"/>
	<polygon class="st30" points="427.28,70.93 475.68,70.93 460.08,34.01 425.14,24.34 	"/>
	<path class="st31" d="M320.88,26.6l14.82-5.65l37.55,6.64l36-6l16.03,6l1.09-9.27c0,0-45.15-3.19-52.95-3.1
		c-7.8,0.08-52.95,3.2-52.95,3.2L320.88,26.6z"/>
	<polygon class="st32" points="319.47,70.93 320.48,21.4 286.88,36.81 270.15,69.41 270.91,70.93 	"/>
	<polygon class="st27" points="320.48,74.46 337.82,86.6 343.68,110.88 337.96,151.82 372.27,149.28 409.31,152.43 403.19,133.61 
		403.56,103.68 406.95,83.35 424.74,74.46 420.48,129.61 424.48,152.01 416.29,170.03 368.09,175.92 332.28,170.51 321.68,151.21 
		325.28,124.01 	"/>
	<polygon class="st28" points="344.27,112.06 350.2,127.21 368.74,121.28 368.74,108.48 	"/>
	<polygon class="st28" points="346.91,137 344.27,145.47 371.66,143.49 368.74,133.99 	"/>
	<polygon class="st28" points="375.05,133.99 375.05,143.49 402.62,146.13 399.71,136.71 	"/>
	<polygon class="st28" points="396.79,127.21 400.27,111.96 375.05,108.95 374.67,121.56 	"/>
	<polygon class="st28" points="400.27,101.33 403.47,86.08 375.52,86.08 375.05,96.24 	"/>
	<path class="st33" d="M336.93,166.93l-10.92-10.92c0,0,17.75-0.75,21.65-1.32c3.9-0.57,19.41-1.69,25.22-1.69s18.4,2.45,23.72,2.45
		c5.32,0,22.02,0.56,22.02,0.56l-9.22,12.05l-35.58,5.27L336.93,166.93z"/>
	<polygon class="st28" points="347.28,102.17 371.66,96.71 368.74,86.08 340.32,86.08 	"/>
</g>
<g id="Layer_3">
	<polygon class="st34" points="522.79,51.19 525.86,86.62 522.79,141.42 510.27,174.72 583.26,174.72 576.17,141.42 572.63,94.65 
		576.17,54.03 570.03,51.19 	"/>
	<polygon class="st35" points="529.64,51.66 529.64,96.31 526.34,144.96 520.19,170.47 549.72,167.64 572.87,170.47 566.02,147.32 
		570.03,95.12 569.32,51.66 	"/>
	<polygon class="st36" points="575.66,53.79 572.63,94.65 576.17,141.42 599.32,154.17 610.66,142.84 609.24,151.58 612.55,162.91 
		609,81.43 609.48,40.8 607.82,34.89 603.97,46.75 	"/>
	<polygon class="st14" points="496.1,25.21 502.83,41.98 595.31,40.56 605.7,25.21 595.78,18.6 552.55,11.75 502.83,18.36 	"/>
	<polygon class="st37" points="492.8,41.98 496.1,47.74 522.79,51.19 525.86,86.62 522.79,141.42 489.73,148.03 486.42,151.81 
		479.81,162.91 479.81,133.86 489.49,84.73 	"/>
	<polygon class="st38" points="496.1,25.21 502.27,40.56 595.31,40.56 605.7,25.21 609.41,40.56 603.67,47.1 575.66,53.79 
		570.03,51.19 522.79,51.19 496.1,47.74 492.8,41.98 	"/>
</g>
<g id="Layer_4">
	<polygon class="st8" points="714.82,109.64 714.82,105.79 708.24,105.79 708.24,107.04 706.99,107.14 706.99,117.6 712.27,117.6 
		712.23,115.06 712.23,113.53 713.48,113.62 713.38,109.73 	"/>
	<polygon class="st39" points="673.16,133.65 706.58,105.61 720.82,41.56 686.65,16 654.48,27.11 643.43,86.02 666.85,133.03 
		660.46,137.1 637.4,87.69 651.47,16 687.65,5.44 730.37,34.34 714.29,108.81 674.89,138.77 	"/>
	<polygon class="st40" points="671.23,175.5 683.88,145.96 683.88,130.51 660.25,125.7 653.59,138.75 653.59,172.75 	"/>
	<polygon class="st41" points="670.78,173.32 681.1,146.37 681.1,132.27 661.81,127.88 656.38,139.79 656.38,170.81 	"/>
	<polygon class="st42" points="670.43,169.75 679.25,146.24 679.25,133.93 662.77,130.11 658.13,140.5 658.13,167.56 	"/>
	<polyline class="st43" points="665.22,168.82 670.43,169.75 679.25,146.24 679.25,133.93 	"/>
	<polygon class="st44" points="659.83,167.86 659.85,141.08 664.52,130.51 662.77,130.11 658.13,140.5 658.13,167.56 	"/>
	<polygon class="st45" points="658.13,165.61 671.14,167.86 670.43,169.75 658.13,167.56 	"/>
</g>
<g id="Layer_5">
	<polygon class="st46" points="724.62,128.52 724.62,135.12 731.82,141.72 751.92,148.32 796.32,131.52 809.82,128.52 
		813.72,121.02 813.72,116.82 795.42,128.52 752.22,141.72 731.22,138.12 	"/>
	<polygon class="st47" points="734.82,128.52 751.48,141.6 731.22,138.12 724.62,128.52 	"/>
	<polygon class="st48" points="748.92,112.02 724.62,128.52 734.82,128.52 751.62,141.72 779.52,125.22 806.82,113.82 817.02,99.12 
		817.02,87.12 810.72,90.42 809.52,88.62 804.42,91.02 800.22,96.12 801.42,91.92 784.02,95.52 771.72,91.92 769.02,88.62 
		769.32,79.32 760.02,98.82 	"/>
	<polygon class="st49" points="769.02,92.52 779.52,125.22 759.53,99.41 	"/>
	<polygon class="st50" points="748.92,112.02 779.52,125.22 759.42,99.42 	"/>
	<polygon class="st51" points="813.72,103.88 813.72,116.82 795.42,128.52 751.62,141.72 779.52,125.22 806.82,113.82 	"/>
	<polygon class="st52" points="813.72,120.72 823.62,124.32 823.62,98.52 820.32,98.52 820.02,94.92 817.02,81.72 817.02,98.52 
		813.72,103.62 	"/>
	<polygon class="st53" points="800.48,95.23 820.62,73.32 820.62,67.92 	"/>
	<polygon class="st54" points="811.02,90.42 809.52,88.62 820.62,76.02 820.62,73.32 820.62,67.92 824.52,62.82 828.12,46.62 
		841.92,40.02 861.12,24.72 847.92,43.62 830.82,79.32 	"/>
	<polygon class="st55" points="804.42,91.02 820.62,73.32 820.62,76.02 809.52,88.62 	"/>
	<polygon class="st56" points="828.12,46.62 824.52,62.82 800.52,95.22 811.62,75.12 	"/>
	<polygon class="st57" points="769.32,79.32 769.32,73.32 772.92,88.92 803.52,84.72 801.42,91.92 784.02,95.52 771.72,91.92 
		769.02,88.62 	"/>
	<polygon class="st58" points="800.52,95.22 803.82,83.82 805.92,78.12 811.02,76.02 	"/>
	<polygon class="st59" points="811.02,63.12 811.02,76.02 818.82,63.12 	"/>
	<polygon class="st60" points="758.52,50.82 761.82,47.22 769.62,56.82 786.42,59.52 811.02,56.52 817.02,46.62 813.72,37.02 
		820.62,40.62 823.62,54.92 818.82,63.12 811.02,63.12 811.02,76.02 796.92,82.62 775.62,79.32 769.32,70.32 	"/>
	<polygon class="st61" points="772.92,88.92 769.32,73.32 769.32,70.32 775.62,79.32 796.92,82.62 805.92,78.42 803.52,84.72 	"/>
	<polygon class="st62" points="761.82,47.22 779.52,43.92 793.62,37.02 805.54,37.02 813.72,37.02 817.02,46.62 811.02,56.52 
		787.32,59.82 769.62,56.82 	"/>
	<polygon class="st54" points="819.72,1.92 805.62,37.02 793.62,37.02 779.52,43.92 768.66,45.95 769.02,43.02 782.52,37.62 
		787.92,25.62 	"/>
	<path class="st8" d="M705.64,144.84"/>
	<polygon class="st46" points="773.74,153.34 773.74,159.94 780.94,166.54 801.04,173.14 845.44,156.34 858.94,153.34 
		862.84,145.84 862.84,141.64 844.54,153.34 801.34,166.54 780.34,162.94 	"/>
	<polygon class="st47" points="783.94,153.34 800.6,166.41 780.34,162.94 773.74,153.34 	"/>
	<polygon class="st48" points="798.04,136.84 773.74,153.34 783.94,153.34 800.74,166.54 828.64,150.04 855.94,138.64 
		866.14,123.94 866.14,111.94 859.84,115.24 858.64,113.44 853.54,115.84 849.34,120.94 850.54,116.74 833.14,120.34 820.84,116.74 
		818.14,113.44 818.44,104.14 809.14,123.64 	"/>
	<polygon class="st49" points="818.14,117.34 828.64,150.04 808.65,124.22 	"/>
	<polygon class="st50" points="798.04,136.84 828.64,150.04 808.54,124.24 	"/>
	<polygon class="st51" points="862.84,128.69 862.84,141.64 844.54,153.34 800.74,166.54 828.64,150.04 855.94,138.64 	"/>
	<polygon class="st52" points="862.84,145.54 872.74,149.14 872.74,123.34 869.44,123.34 869.14,119.74 866.14,106.54 
		866.14,123.34 862.84,128.44 	"/>
	<polygon class="st53" points="849.6,120.04 869.74,98.14 869.74,92.74 	"/>
	<polygon class="st54" points="860.14,115.24 858.64,113.44 869.74,100.84 869.74,98.14 869.74,92.74 873.64,87.64 877.24,71.44 
		891.04,64.84 910.24,49.54 897.04,68.44 879.94,104.14 	"/>
	<polygon class="st55" points="853.54,115.84 869.74,98.14 869.74,100.84 858.64,113.44 	"/>
	<polygon class="st56" points="877.24,71.44 873.64,87.64 849.64,120.04 860.74,99.94 	"/>
	<polygon class="st57" points="818.44,104.14 818.44,98.14 822.04,113.74 852.64,109.54 850.54,116.74 833.14,120.34 820.84,116.74 
		818.14,113.44 	"/>
	<polygon class="st58" points="849.64,120.04 852.94,108.64 855.04,102.94 860.14,100.84 	"/>
	<polygon class="st59" points="860.14,87.94 860.14,100.84 867.94,87.94 	"/>
	<polygon class="st60" points="807.64,75.64 810.94,72.04 818.74,81.64 835.54,84.34 860.14,81.34 866.14,71.44 862.84,61.84 
		869.74,65.44 872.74,79.73 867.94,87.94 860.14,87.94 860.14,100.84 846.04,107.44 824.74,104.14 818.44,95.14 	"/>
	<polygon class="st61" points="822.04,113.74 818.44,98.14 818.44,95.14 824.74,104.14 846.04,107.44 855.04,103.24 852.64,109.54 	
		"/>
	<polygon class="st62" points="810.94,72.04 828.64,68.74 842.74,61.84 854.66,61.84 862.84,61.84 866.14,71.44 860.14,81.34 
		836.44,84.64 818.74,81.64 	"/>
	<polygon class="st54" points="868.84,26.74 854.74,61.84 842.74,61.84 828.64,68.74 817.78,70.76 818.14,67.84 831.64,62.44 
		837.04,50.44 	"/>
</g>
<g id="Layer_6">
	<polygon class="st63" points="993.94,27.49 989.38,55.31 966.22,55.31 979.67,46.42 	"/>
	<polygon class="st64" points="966.22,55.31 952.18,82.62 965.8,60.25 989.38,55.31 	"/>
	<polygon class="st65" points="993.94,27.49 993.94,55.59 1007.45,60.18 989.38,55.31 	"/>
	<polygon class="st66" points="998.84,65.05 989.38,55.31 1008.15,60.18 	"/>
	<polygon class="st67" points="994.25,74.4 998.84,65.05 989.38,55.31 965.8,60.25 989.38,60.18 	"/>
	<polygon class="st68" points="952.18,82.62 970.78,64.69 989.38,60.18 965.8,60.25 	"/>
	<polygon class="st69" points="998.84,65.05 998.84,83.75 994.25,74.4 	"/>
	<polygon class="st8" points="1017.33,83.75 1008.15,88.53 998.84,83.75 	"/>
	<polygon class="st14" points="1003.42,69.64 1017.61,65.05 1012.88,79.16 998.84,83.75 	"/>
	<polygon class="st8" points="1017.33,83.75 1017.61,65.05 1012.88,79.16 	"/>
	<polygon class="st70" points="998.84,65.05 1008.15,60.18 1017.61,65.05 	"/>
	<polygon class="st8" points="1017.33,83.75 1017.61,65.05 1022.27,74.4 	"/>
	<polygon class="st71" points="1008.15,60.18 1045.78,36.81 1017.61,65.05 	"/>
	<polygon class="st72" points="1022.27,74.4 1045.78,46.2 1045.78,36.81 1017.61,65.05 	"/>
	<polygon class="st73" points="1036.53,27.49 1036.53,36.81 1008.15,60.18 1045.78,36.81 	"/>
	<polygon class="st74" points="1073.94,8.53 1045.78,36.81 1036.53,27.49 	"/>
	<polygon class="st75" points="1055.24,45.99 1073.94,8.53 1045.78,36.81 	"/>
	<polygon class="st76" points="1045.78,46.2 1045.78,36.81 1055.24,45.99 	"/>
	<polygon class="st77" points="1022.27,74.4 1023.46,77.97 1026.96,88.53 1055.24,88.53 1036.32,102.6 1026.96,116.15 
		1026.96,93.07 	"/>
	<polygon class="st78" points="1017.33,83.75 1022.27,74.4 1026.96,93.07 	"/>
	<polygon class="st79" points="1022.27,117 1026.96,93.07 1026.96,116.15 999.26,130.41 	"/>
	<polygon class="st80" points="1022.15,93.07 1022.27,117 999.26,130.41 1017.61,112.13 	"/>
	<polygon class="st81" points="1007.73,88.53 1022.15,93.07 1022.27,117 1026.96,93.07 1017.33,83.75 	"/>
	<polygon class="st82" points="994.25,74.4 998.84,83.75 977.38,94.27 	"/>
	<polygon class="st83" points="1007.73,88.53 998.84,83.75 998.55,83.89 987.82,105.66 	"/>
	<polygon class="st84" points="977.38,94.27 958.74,116.15 946.98,135.49 998.84,83.75 	"/>
	<polygon class="st8" points="937.66,144.91 946.98,135.49 949.71,137.09 946.22,140.67 	"/>
	<polygon class="st85" points="923.54,158.84 958.23,117 946.98,135.49 998.84,83.75 987.82,105.66 950.55,137.19 943.68,142.93 	
		"/>
	<polygon class="st86" points="994.25,74.4 970.78,97.66 960.37,114.24 	"/>
	<polygon class="st87" points="1007.73,88.53 984.58,112.27 967.85,122.56 	"/>
	<polygon class="st88" points="970.56,98 941.87,126.53 913.94,168.53 956.55,140.2 984.21,112.49 967.85,122.56 923.54,158.84 
		961.05,113.45 	"/>
	<polygon class="st89" points="998.84,65.05 1003.42,69.64 1017.61,65.05 	"/>
	<polygon class="st90" points="998.84,83.75 1017.33,83.75 1012.88,79.16 	"/>
	<polygon class="st91" points="1017.33,83.75 1017.61,65.05 1012.88,79.16 	"/>
	<polygon class="st92" points="998.84,83.75 998.84,65.05 1003.42,69.64 	"/>
	<polygon class="st93" points="1017.33,83.75 1022.27,74.4 1017.61,65.05 	"/>
	<polygon class="st94" points="1007.73,88.53 1017.33,83.75 998.84,83.75 	"/>
	<rect x="6.94" y="28.76" class="st8" width="120.71" height="147.18"/>
	<text transform="matrix(1 0 0 1 12.9189 66.2646)"><tspan x="0" y="0" class="st95 st96 st97">OSRS</tspan><tspan x="5.63" y="72" class="st95 st96 st97">LIFE</tspan></text>
</g>
</svg>
